<svg width="300" xmlns="http://www.w3.org/2000/svg" viewBox="0 0 1174.38 279.57">
  <path d="M801.32 124.52c-7.37-11.42-20.12-17.97-35.77-17.97-32.33 0-60.71 31.18-60.02 68.83.55 29.99 19.96 54.04 46.97 54.04 15.31 0 28.16-7.47 35.63-17.47l-1.31 9.78c-2.67 19.79-17.09 28.27-35.59 28.27-16.16 0-30.76-6.35-43.55-19.54l-4.34 32.25c12.75 11.27 32.05 16.85 49.28 16.85 34.03 0 62.75-17.45 68.53-60.39l9.77-72.71c1.81-13.47 4.18-26.17 8.52-37.37h-19.1c-8.57 0-17.11 6.89-19.02 15.41Zm-37.44 75.76c-13.4 0-23.44-12.14-23.72-27.24-.34-18.72 13.53-36.5 30.76-36.5 14.04 0 23.89 12.89 24.16 27.57.32 17.23-13.13 36.17-31.2 36.17ZM424.52 142.98c0-22.21-18.32-36.03-45.2-36.41-42.08-.58-66.05 32.73-66.05 67.22s22.49 55.63 58.91 55.63c16.95 0 30.86-2.53 44.69-8.18l4.15-30.98c-11.3 6.24-26.57 11.3-43.84 11.3-18.7 0-28.06-8.48-29.03-20.17 5.6.66 11.74 1.1 18.02 1.1 27.99 0 58.35-7.96 58.35-39.5Zm-75.34 16.22c2.48-15.22 15.29-27.3 28.24-27.3 8.57 0 13.4 3.68 13.4 10.49 0 13.44-19.74 18.55-41.64 16.81ZM466.24 181.38c5.6.66 11.74 1.1 18.02 1.1 27.99 0 58.35-7.96 58.35-39.5 0-22.21-18.32-36.03-45.2-36.41-42.08-.58-66.05 32.73-66.05 67.22s22.49 55.63 58.91 55.63c16.95 0 30.86-2.53 44.69-8.18l4.15-30.98c-11.3 6.24-26.57 11.3-43.84 11.3-18.7 0-28.06-8.48-29.03-20.17Zm29.27-49.49c8.57 0 13.4 3.68 13.4 10.49 0 13.44-19.74 18.55-41.64 16.81 2.49-15.22 15.29-27.3 28.24-27.3ZM951.81 142.98c0-22.21-18.32-36.03-45.2-36.41-42.08-.58-66.05 32.73-66.05 67.22s22.49 55.63 58.91 55.63c16.95 0 30.85-2.53 44.69-8.18l4.15-30.98c-11.3 6.24-26.57 11.3-43.84 11.3-18.7 0-28.06-8.48-29.03-20.17 5.6.66 11.74 1.1 18.02 1.1 27.99 0 58.35-7.96 58.35-39.5Zm-75.34 16.22c2.48-15.22 15.29-27.3 28.24-27.3 8.57 0 13.4 3.68 13.4 10.49 0 13.44-19.74 18.55-41.64 16.81ZM1038.68 106.55c-16.36 0-28.85 6.81-37.11 18.57.2-8.68-6.85-16.01-15.53-16.01h-16.67c1.96 11.24.68 25-.98 37.37l-10.81 80.39h34.01l9.12-67.81c1.65-12.31 9.84-22.11 23.24-22.11 14.06 0 17.51 11.47 16.23 21.04l-9.27 68.87h34.01l10.43-77.59c3.6-26.74-12.94-42.72-36.67-42.72ZM1136.1 137.16h10.61c18.23 0 28.28-11.27 27.64-28.06h-34.48l4.73-35.22h-30.35l-2.47 18.4c-1.97 14.66-11.68 18.83-22.7 18.83l-3.51 26.05h16.98l-6.06 45.03c-3.41 25.21 7.17 47.19 42.09 47.19 8.71 0 18.27-1.49 22.92-3.4l3.91-29.12c-5.28 1.7-12.28 2.76-17.17 2.76-13.82 0-19.61-7.07-17.73-20.83l5.59-41.63ZM175.99 140.51l5.43-40.41h35.53c18.24 0 33.32-7.57 32.69-31.64h-98.58l-21.3 158.4h34.61l7.62-56.69h28.42c19.29 0 29.97-11.88 29.29-29.67h-53.73ZM57.88 58.59h27.71c27.01 0 42.18 11.22 50.33 25.24 1.44-18.68-8.35-33.76-30.15-43.84L55.4 16.8C44.01 11.55 34.88 5.53 32.88 0c-11.56 15.83-6.72 44.03 25 58.59Z" fill="#0069bf"/>
  <path d="M85.59 68.46H27.98c-11.02 0-22.9-1.14-27.48-5.8-3.17 18.35 8.66 39.62 43.56 39.62H82.1c15.22 0 26.04 4.77 27.98 12.95-4.09-2.04-14.21-3.07-23.73-3.07H45.99c5.36 17.53 18.53 28.33 40.36 28.33h22.2c12.18 0 18.77 1.31 22.8 5.4 10.23-49.65-5.73-77.45-45.76-77.45ZM318.31 107.83c-2.57-.85-5.98-1.28-9.16-1.28-10.64 0-23.63 4.93-33.51 18.57.12-8.62-6.91-16.01-15.54-16.01h-16.67c1.96 11.24.69 24.96-.98 37.37l-10.81 80.39h34.01l7.78-57.86c3.05-22.71 15.68-30.78 30.56-30.78 3.19 0 6.68.43 10.09 1.06l4.23-31.46ZM685.46 154.71l-20-86.25h-40.82l-82.67 158.4h37.43l16.59-32.99h32.94c12.87 0 23.29-6.71 27.41-17.58l10.48 50.58h39.3c-6.88-12.74-12.21-35.74-20.66-72.15Zm-74.53 9.43 30.37-60.42 12.52 60.42h-42.89Z" fill="#0069bf"/>
</svg>
