<svg width="164" height="164" fill="none" xmlns="http://www.w3.org/2000/svg"><path d="M85.32 163c27.8 0 50.32-3.02 50.32-6.75s-22.53-6.75-50.32-6.75c-27.8 0-50.32 3.02-50.32 6.75S57.53 163 85.32 163Z" fill="#E2E4E3" style="mix-blend-mode:multiply"/><path d="M64.65 10.68a147.96 147.96 0 0 0-5.96-5.23C56.77 3.9 55.24 3.4 53.83 4.2c-.98.56-1 2.46-1.05 4.34-.27 11.12 4.14 15.53 3.65 18.59-.05.32.11.63.1.96" fill="#B3BBC0"/><path d="M63.92 13.18c-.93-2.95-6.9-7.95-8.26-8.1-.84-.08-1.45 1.04-1.33 3.2.34 5.74-.16 9.63 3.54 13.69 2.07 2.27 2.67-1.15 4.23-2.56a5.67 5.67 0 0 0 1.82-6.23Z" fill="#fff"/><path d="M89.52 9.59c1.45-1.84 3.66-4.6 5.32-6.44 1.6-1.79 3.01-2.53 4.54-2.05 1.06.33 1.5 2.08 1.83 3.82 1.37 7.24-.52 15.67-.65 17.68-.02.3 0 .6.07.9" fill="#B3BBC0"/><path d="M90.6 11.81c.51-3.05 5.7-8.86 7.03-9.2.82-.2 1.58.82 1.76 2.96.5 5.74 1.55 9.52-1.54 14.07-1.72 2.55-2.8-.75-4.55-1.92a5.66 5.66 0 0 1-2.7-5.9Z" fill="#fff"/><path d="M56.37 8.23c.96.09 1.73.44 2.45.88a7.2 7.2 0 0 1 3.02 3.95c.13.42.17.9.18 1.36-.03.24-.04.47-.1.7-.07.24-.15.46-.27.67h-.16a6.01 6.01 0 0 0-.74-2.15 21.63 21.63 0 0 0-2.82-3.66c-.54-.55-1.09-1.1-1.66-1.63l.1-.12Zm41.42-2.46c-.5.6-.98 1.2-1.45 1.83A21.54 21.54 0 0 0 94 11.57a7 7 0 0 0-.34 1.1c-.03.18-.08.37-.1.56l-.03.57-.15.01c-.15-.19-.26-.4-.36-.63-.09-.22-.12-.44-.18-.68a4.87 4.87 0 0 1 0-1.37 7.3 7.3 0 0 1 2.52-4.3 5.67 5.67 0 0 1 2.32-1.17l.1.1Z" fill="#F4F4F4"/><path d="M70.99 10.9c-1.05.05-2.1.13-3.16.19l-3.15.2h-.24l-.2-.17L60.7 8l-1.8-1.54c-.6-.5-1.18-.99-1.8-1.36a3.76 3.76 0 0 0-1.9-.64c-.3 0-.6.07-.88.2l-.2.1a.57.57 0 0 0-.1.1c-.08.08-.16.19-.22.32a5.97 5.97 0 0 0-.38 2.08c-.04.76-.01 1.55 0 2.34.07 3.15.27 6.31.99 9.34.35 1.51.9 2.94 1.62 4.32.35.7.78 1.46.92 2.37.07.44.07.9.02 1.32l-.03.27c0 .04 0 .1.02.18.02.15.1.38.1.69l-.05-.23a6.51 6.51 0 0 0 .72.96 11.37 11.37 0 0 0 3.15 2.31c1.57.83 3.27 1.4 5 1.85 3.47.88 7.08 1.16 10.67 1.2h1.35c.43.01.86-.03 1.3-.07.89-.1 1.77-.23 2.66-.37 1.77-.3 3.53-.7 5.26-1.14a45.4 45.4 0 0 0 5.12-1.6 22.6 22.6 0 0 0 4.68-2.4c1.4-.98 2.64-2.26 2.93-3.76.07-.37.08-.75.04-1.13-.05-.42-.13-.96-.07-1.52.13-1.07.42-1.9.62-2.78.88-3.45.94-7.05.56-10.63-.08-.9-.21-1.78-.34-2.68-.14-.89-.26-1.78-.48-2.6-.12-.4-.25-.8-.43-1.12-.17-.33-.38-.55-.56-.6a2.43 2.43 0 0 0-2.06.27c-.69.39-1.31.99-1.9 1.64-.6.67-1.2 1.35-1.79 2.04a206.01 206.01 0 0 0-3.47 4.2l-.16.21-.25.01-4.64.16c-1.55.04-3.1.12-4.64.18L71 10.9Zm-.05-1 9.28-.4c1.55-.08 3.1-.14 4.64-.23l4.64-.25-.42.22c1.12-1.45 2.25-2.89 3.4-4.3.58-.72 1.17-1.42 1.78-2.12A9.4 9.4 0 0 1 96.45.88a4.1 4.1 0 0 1 1.5-.57 3.64 3.64 0 0 1 1.67.13c.34.11.63.32.84.54.23.22.39.46.52.7.27.48.43.95.57 1.42.28.94.42 1.86.58 2.77.15.91.27 1.83.37 2.75.2 1.85.3 3.71.22 5.59a27.11 27.11 0 0 1-.78 5.57c-.21.9-.5 1.8-.59 2.56-.02.18-.02.35 0 .55 0 .21.04.39.06.66.06.52.04 1.07-.06 1.6a6.2 6.2 0 0 1-1.38 2.76c-.65.77-1.4 1.4-2.19 1.95a23.85 23.85 0 0 1-5.02 2.54 44.9 44.9 0 0 1-5.29 1.64 55.86 55.86 0 0 1-8.16 1.38c-.46.04-.94.07-1.42.06l-1.37-.03A49.93 49.93 0 0 1 65.6 34a24.73 24.73 0 0 1-5.2-1.98 13.8 13.8 0 0 1-2.36-1.53 9.78 9.78 0 0 1-1.54-1.53c-.15-.2-.28-.38-.43-.67l-.05-.1v-.13c0-.09-.03-.25-.08-.48a1.8 1.8 0 0 1-.03-.41l.03-.33a4 4 0 0 0-.01-1.05c-.1-.68-.46-1.33-.83-2.04a19.15 19.15 0 0 1-1.77-4.55 46.33 46.33 0 0 1-1.14-9.57c-.02-.8-.05-1.6-.02-2.42.04-.82.08-1.67.48-2.58.1-.22.25-.45.45-.66.1-.1.2-.2.34-.28.13-.09.22-.12.33-.18.43-.2.92-.33 1.4-.33 1 0 1.84.38 2.57.8.73.44 1.38.98 1.99 1.48a123.74 123.74 0 0 1 5.34 4.77l-.44-.16 3.16-.08c1.05-.04 2.1-.05 3.16-.1Z" fill="#2B3A40"/><path d="M98.55 45.83c-.34-2.2-.91-6.14 0-9.13 1.13-3.75 2-5.32 2.39-7.95.46-3.15.2-7.73-4.1-11.84-3.44-3.26-6.78-8.12-12.42-9.13 0 0-1.58-1.15-7.53-.9-6.46.72-7.66 1.95-7.66 1.95-3.91.98-6.31 4.1-8.15 7.64-2.07 3.97-5.58 8.62-4.15 14.03.69 2.57 2.16 5.28 3.95 7.89 1.1 1.6 3.62 6.17 2.6 11.5" fill="#B3BBC0"/><path d="M61.67 17.71c-.52.09-1.03.23-1.5.43-1.7 3.01-3.7 6.38-3.56 10.16a.57.57 0 0 0 .27-.42c.06-.4.14-.77.22-1.14a2.49 2.49 0 0 1 1.1-1.3c1.07-.65 2.65-1.17 3.61-2.24.32-.33.06-.94-.4-.91a15.1 15.1 0 0 0-2.74.3 16.23 16.23 0 0 1 3.37-3.94c.43-.31.16-1.02-.37-.94Zm35.16-.8a48.7 48.7 0 0 1-1.67-1.7 7.23 7.23 0 0 0-1.89-.05c-.53.05-.62.82-.12 1a19.06 19.06 0 0 1 5.07 3.54 13.3 13.3 0 0 0-3.14.33.54.54 0 0 0-.36.24c-.7 1.3 3.54 1.77 4.19 2.06 1.04.33 1.43 1.06 2 1.99a13.04 13.04 0 0 0-4.08-7.4Z" fill="#2A3940"/><path opacity=".25" d="M100.94 26.55c-.23 3.16-2.23 8.71-3.4 10.2-1.76 2.25 4.73-11.91-4.67-20.47-2.02-1.85-2.46-6.92-9.65-7.36-1.16-.07-2.08.5-2.96.7-1.71.37.13-1.14 2.27-1.78 1.58-.47 6.29 1.21 8.45 3.1 4.92 4.32 6.68 6.48 7.82 8.25 1.13 1.78 2.4 3.93 2.14 7.36Z" fill="#EBEDEE"/><path d="M81.81 12.31c.54-.47.6-.44 1.42-1 1-.7 2.18-1.22 3.74-.88 1.93.42 3.69 2.6 4.2 4.22.17.51-.45 1.04-1.51 1.22-1.06.19-2.36.67-4.33.12-2.42-.67-3.94-3.31-3.52-3.68Z" fill="#fff"/><path d="M81.18 12.01c.51.03.92-.35 1.35-.68.43-.34.9-.7 1.42-.97a4.92 4.92 0 0 1 3.52-.35c.6.17 1.16.44 1.62.83a7 7 0 0 1 1.2 1.3 9.68 9.68 0 0 1 1.07 1.87l.16.34c.12.2.3.4.45.52l.03.02c.12.1.15.26.06.39a.27.27 0 0 1-.37.07c-.3-.2-.5-.42-.68-.67a3.56 3.56 0 0 1-.23-.39 7.22 7.22 0 0 0-2.33-2.56c-.42-.26-.84-.5-1.3-.66a5.1 5.1 0 0 0-1.44-.23c-.5-.03-.99.04-1.47.2-.99.3-1.76 1.14-2.96 1.51l-.03.01a.28.28 0 1 1-.07-.55Z" fill="#2B3A40"/><path d="M86.1 15.46c1.5-.1 2.63-1.22 2.54-2.5-.08-1.27-1.37-2.22-2.86-2.12-1.5.1-2.64 1.23-2.55 2.5.09 1.28 1.37 2.23 2.87 2.12Z" fill="#2B3A40"/><path d="M60.88 38.39c.65.94 2.4 2.86 3.26 3.33l-3.26-3.33Z" fill="#7A8992" style="mix-blend-mode:multiply" opacity=".2"/><path d="M97.8 46.43a32.96 32.96 0 0 1-.45-5.94c.02-1 .13-2.01.33-3.02.23-1.03.56-1.93.87-2.87.63-1.88 1.39-3.66 1.72-5.5.34-1.84.36-3.75-.09-5.57a12.17 12.17 0 0 0-2.5-4.96l-.46-.53-.5-.5c-.31-.34-.7-.7-1.03-1.04-.7-.7-1.36-1.42-2.02-2.12a29.12 29.12 0 0 0-4.27-3.83 12.4 12.4 0 0 0-5.09-2.15l-.26-.1-.11-.06-.19-.08-.4-.13a16.16 16.16 0 0 0-2.69-.41c-.62-.04-1.24-.05-1.86-.05l-1.88.05h.05c-1.3.16-2.59.36-3.85.62a22 22 0 0 0-1.86.48 9.69 9.69 0 0 0-1.41.6.7.7 0 0 0-.07.05l-.02.02.02-.02-.36.2A9.43 9.43 0 0 0 65.18 12a17.37 17.37 0 0 0-3.03 4.1c-1.63 3.17-3.75 6.1-4.59 9.4a9.77 9.77 0 0 0-.03 4.99 21.4 21.4 0 0 0 2 4.8 32 32 0 0 0 1.36 2.25l.37.55a12.12 12.12 0 0 1 1.03 1.8c.4.83.75 1.67 1.06 2.52.3.87.57 1.74.72 2.68a.5.5 0 1 1-1 .16v-.02a17.89 17.89 0 0 0-2.26-6.05c-.1-.18-.22-.35-.34-.53l-.38-.56a38.6 38.6 0 0 1-1.44-2.3 22.46 22.46 0 0 1-2.24-4.99c-.54-1.8-.56-3.78-.15-5.6a21.1 21.1 0 0 1 2-5.15c.42-.8.86-1.58 1.29-2.36.44-.78.83-1.53 1.27-2.35.88-1.6 1.93-3.16 3.3-4.47a10.98 10.98 0 0 1 4.93-2.78l-.36.2.11-.1.08-.05.14-.1.27-.15c.17-.1.34-.17.5-.24.34-.15.68-.27 1.01-.38a22.5 22.5 0 0 1 2-.52 39.6 39.6 0 0 1 4.01-.6h.05a35.65 35.65 0 0 1 3.91.1 17.48 17.48 0 0 1 2.96.55 6.07 6.07 0 0 1 .76.3c.1.05.16.07.3.17l-.26-.1c2.02.38 3.9 1.3 5.5 2.5a33.07 33.07 0 0 1 4.36 4.02c.68.7 1.34 1.41 2.02 2.1.34.35.68.65 1.04 1.02l.52.54.5.57c1.3 1.53 2.3 3.37 2.8 5.35.5 1.98.52 4.06.2 6.06-.33 2.02-1.11 3.87-1.7 5.7-.3.9-.63 1.85-.81 2.72-.2.9-.3 1.85-.36 2.8-.1 1.9-.06 3.84.19 5.74a.5.5 0 0 1-1 .15Z" fill="#2B3A40"/><path d="M82.9 141.45c2.62.43 7.74 1.01 13.28 1.69a283.9 283.9 0 0 0 29.15 1.86c25.33.14 28-4.41 28.98-11.29 1.15-8.17-9.79-13.93-6.11-16.57 2.18-1.57 11.7 3.1 13.88 13.65 1.51 7.27-1.37 19.55-17.46 22.95-9.9 2.1-19.98 1.76-34.06 1.42a446.6 446.6 0 0 1-22.3-1.01c-6.66-.57-7.43-2.37-8.2-5.97-1-4.66-.35-7.25 2.83-6.73Z" fill="#B3BBC0"/><path d="M65.86 151.7s1.05-4.23 3.86-4.58c2.8-.36 41.48-1.62 41.74-.56 1.17 4.69 10 6.55 25.26 5.5 15.17-1.06 24.56-6.88 24.56-22.05 0 0 1.22-.89 1.22 3.17s-1.22 13.4-10.7 18.17c-9.47 4.76-30.75 4.1-41.24 3.81-10.5-.28-27.86-2.05-31.2-2.75-3.33-.7-5.26-.18-7.9-.27-2.62-.08-5.6-.44-5.6-.44Z" fill="#7A8992" style="mix-blend-mode:multiply" opacity=".25"/><path d="M86.94 140.93c1.15.18 2.28.44 3.38.67 1.1.23 2.22.42 3.33.58 2.24.31 4.5.52 6.77.77 4.52.48 9.04.95 13.58 1.28 4.53.34 9.06.58 13.6.55 4.53-.03 9.08-.19 13.53-.87a28.2 28.2 0 0 0 6.47-1.7c1.02-.42 1.98-.95 2.83-1.61a7.88 7.88 0 0 0 2.06-2.43c.5-.95.83-2 1.05-3.1.11-.53.2-1.1.27-1.64.06-.54.07-1.08.02-1.61-.18-2.16-1.2-4.2-2.46-6.03a52.6 52.6 0 0 0-2.02-2.72c-.7-.91-1.43-1.8-2.03-2.9a3.42 3.42 0 0 1-.47-2.01c.05-.4.24-.8.5-1.09a2.64 2.64 0 0 1 .92-.68c.75-.27 1.41-.2 2.03-.1.62.11 1.2.3 1.76.53 2.23.93 4.15 2.4 5.77 4.12a20.2 20.2 0 0 1 4.93 9.34c.27 1.17.42 2.37.45 3.56.06 2.38-.31 4.78-1.1 7.03a18.7 18.7 0 0 1-3.55 6.17 20.66 20.66 0 0 1-5.5 4.46 27.6 27.6 0 0 1-6.53 2.61c-.56.16-1.13.27-1.7.41l-1.7.33c-1.13.2-2.27.4-3.41.54-4.57.6-9.16.8-13.73.78-4.58 0-9.13-.16-13.69-.3-4.56-.13-9.12-.35-13.67-.65-4.55-.32-9.11-.63-13.64-1.28-2.26-.32-4.51-.68-6.76-.95-2.25-.27-4.5-.38-6.75-.32a.53.53 0 0 1-.03-1.05c2.3-.05 4.62.09 6.9.36 2.28.27 4.52.63 6.78.94 4.49.64 9.02.94 13.57 1.18 4.54.23 9.08.38 13.63.44 4.56.07 9.1.16 13.65.1 4.53-.06 9.06-.24 13.53-.84 1.12-.15 2.23-.34 3.33-.54l1.66-.33c.54-.13 1.08-.24 1.62-.39a26.24 26.24 0 0 0 6.14-2.45 17.99 17.99 0 0 0 8.37-9.75 17.91 17.91 0 0 0-.36-12.87c-.82-2.03-2-3.93-3.48-5.56a15.7 15.7 0 0 0-5.23-3.87c-.49-.21-1-.38-1.5-.48a2.7 2.7 0 0 0-1.34 0l-.1.06-.11.07a1.4 1.4 0 0 0-.22.2.85.85 0 0 0-.22.45c-.06.33.1.81.33 1.27.49.92 1.2 1.83 1.88 2.73.69.91 1.39 1.83 2.03 2.8 1.28 1.94 2.4 4.14 2.58 6.59.05.6.03 1.22-.04 1.82-.07.6-.16 1.16-.27 1.74a12.22 12.22 0 0 1-1.15 3.39 9 9 0 0 1-2.32 2.78c-.94.75-2 1.32-3.08 1.79a29.27 29.27 0 0 1-6.71 1.8c-4.56.72-9.14.9-13.71.96-4.58.06-9.16-.16-13.7-.47-4.56-.33-9.1-.72-13.64-1.25-2.27-.27-4.53-.53-6.8-.91a52.12 52.12 0 0 1-3.39-.68c-1.12-.26-2.2-.55-3.3-.73a.53.53 0 0 1 .16-1.04Z" fill="#2B3A40"/><path d="M94.6 147.65c.28-4.16 3.78-5.3 3.78-5.3l4.77.84 8.1 1.03-.82 2.19c-4-2.09-7.54.03-8.96 3.65a20.8 20.8 0 0 0-.92 4.74l-4.63-.32c-1.65-2.15-1.43-5.21-1.32-6.83Z" fill="#2A3940"/><path d="m109.93 144.54 6.43.56 3.78.05 5.43.08-1.25 1.57c-1.9-1.62-6.65-.9-7.31 2.63-.29 1.58-.5 4.13-.18 5.73l-6.17.01c-2.01-5.05-.73-10.63-.73-10.63Zm51.83-7.06c.2-1.97-1.84-3.78-3.06-4.27-2.36-.96-3.85.3-3.85.3l-1.73 4.21-.8 2.52s3.36-5.1 8.4.09l1.04-2.85Zm-7.46-5.42s.4-2.63 2.75-3.08c1.2-.23 3.71.34 4.53 2.26 0 0 .5-5.35-3.81-9.66-4.32-4.3-7.9-5.81-9.53-4.62-1.26.92-1.2 1.9 1.26 5 4.32 5.44 4.68 8.05 4.8 10.1Zm-79.32 4.64s5.97-1.84 10.37 1.65c.78.62 7.32 3.14 7.66 3.26 1.15.41 3.18.9 5.89 1.5 2.7.58-2 2.15-2 2.15-3.5-1.76-8.07-.96-9.7 2.1l-.01.03c-1.54 4.19.24 6.13.24 6.13-2.42-.06-6.31-.76-6.31-.76-.95-.54-3.16-5.11-1.06-9.88 1.12-2.52-2.8-3.53-5.08-6.17Z" fill="#2A3940"/><path d="M126.04 145.56s9.22-.7 10.4-.61c1.08.09 2.84.06 2.84.06l-.49 1.07c-2.36-.7-4.2-.32-5.05.52-.79.8-.65 2.43-.8 3.76a10.1 10.1 0 0 1-1.93 5.41l-5.13-.35c.1-5.25-2.72-10.06-2.72-10.06l2.88.2Z" fill="#2A3940"/><path d="M137.64 145.16s3.42-.69 6.32-1.22c1-.18 2.1.83 2.76 3.18.66 2.34-.4 5.16-1.58 6.21l-5.35.63c1.48-5.67-2.15-8.8-2.15-8.8Zm19.56 2.87c1.15-4.75-2.85-8.59-5.22-7.53-.83.37-7.1 3.7-5.13 3.04 1.97-.66 6.45-.4 6.87 6.86l3.48-2.37Z" fill="#2A3940"/><path opacity=".25" d="M153.36 119.23c.9.38 1.7.92 2.43 1.54a11.33 11.33 0 0 1 4.08 7.59 11 11 0 0 1 .01 2.97c-.13.98-.43 1.91-.8 2.8a14.88 14.88 0 0 1-3.19 4.64l-.15-.13a15.37 15.37 0 0 0 2.41-4.85c.5-1.71.56-3.48.16-5.14l-.15-.63-.23-.6c-.14-.4-.35-.78-.54-1.17-.09-.2-.2-.38-.3-.57-.1-.19-.22-.37-.31-.57l-.32-.56c-.1-.2-.2-.38-.32-.57-.87-1.52-1.87-3-2.9-4.6l.12-.15Z" fill="#EBEDEE"/><path d="M116.2 105.02c-2.1-3.7-.8-3.17-3.42-14.82-1.73-7.63-5.6-14.7-8.07-18.66-.02-.4-.05-.8-.09-1.18-.82-9.13-7.82-18.07-5.45-34.74 0 0-5.53 11.13-18.04 12.2-13.12 1.12-19.4-8.11-19.4-8.11s2.07 4.14 1.85 8.95c-.28 6.08-2.86 10.7-4.21 15.87-1.9 7.25-1.06 10.85.1 21.27l.02.09c-.12 6.5-.12 7.75-.12 7.75-.27 8.73-3.42 10.59-7.37 16.4-3.95 5.83-1.58 24.09.26 32.82 1.47 6.93 8.74 10.53 14.44 11.71a10.22 10.22 0 0 0 0 3.8c.25 1.53 5.19 2.04 7.72 2.04 2.53 0 5.44-.51 6.2-1.02l.1-.07c.2.25.45.45.79.58 3.04 1.14 8.73 1.53 13.29.76 2.47-.41 2.26-3.08 1.55-5.43 4.49-.7 3.28 2.1 7.88-.98 4.73-3.18 11.97-13.51 14.34-25.68 2.36-12.17-.27-19.85-2.37-23.55Z" fill="#B3BBC0"/><path d="M76.6 57.62c-3.15-1.62-6.45-3.1-9.1-5.27-2.36-1.85-3.8-3.92-3.85-6.89a3.15 3.15 0 0 0-.64-1.8c.29 1.46.57 3.31.57 5 0 2.39-.45 4.55-1.06 6.6a17.86 17.86 0 0 0 8.04 3.32c1.94.34 3.87.45 5.8.3.66-.03.84-.98.24-1.26Zm23.24-4.72a43.96 43.96 0 0 1-1.17-12.51c-.25.43-.4.96-.39 1.58 0 .81.18 1.65.02 2.45a7.16 7.16 0 0 1-.61 2c-2.46 4.78-7.28 8.09-11.73 11.13-.55.38-.22 1.28.44 1.21 2.07-.18 4.1-.69 6.1-1.4a21.4 21.4 0 0 0 7.34-4.45Zm4.87 18.64a30.66 30.66 0 0 0-1.42-7.35 8.8 8.8 0 0 1-.8 3.56c-1.2 2.64-3.83 4.28-6.06 6.02a.83.83 0 0 0-.35.62.8.8 0 0 0 .75.87c.9.05 1.81.1 2.7-.04 2.47-.3 4.49-1.06 6.09-2.18l-.9-1.5Zm-39.36 4.92a.83.83 0 0 0 .07-1.55 12.36 12.36 0 0 1-4.8-3.91 16.74 16.74 0 0 1-1.94-3.36c-.5 2.81-.52 5.23-.3 8.15.47.21.96.4 1.47.55a9.1 9.1 0 0 0 5.5.12Z" fill="#2B3A40"/><path d="M69.36 150.73c.04-.97.02-2.14-.07-3.46l-.19-.18s-8.15-.8-9.73 5.56c-1.48 5.94 6.23 5.07 7.22 4.94-.58-5.43 2.77-6.86 2.77-6.86Z" fill="#B3BBC0"/><path d="M69.36 150.73c.04-.97.02-2.14-.07-3.46l-.19-.18s-8.15-.8-9.73 5.56c-1.48 5.94 6.23 5.07 7.22 4.94-.58-5.43 2.77-6.86 2.77-6.86Z" fill="#7A8992" style="mix-blend-mode:multiply" opacity=".25"/><path d="M68.93 150.43a.13.13 0 0 0-.08.05c-.01.01-.02.08-.02.02v-.22l-.03-.42-.08-.85c-.06-.56-.07-1.13-.1-1.7l.21.46-.17-.17.38.16a12.5 12.5 0 0 0-5.36.69c-.83.34-1.6.82-2.21 1.46a5.38 5.38 0 0 0-1.27 2.27 5.27 5.27 0 0 0-.18 2.46c.15.72.6 1.27 1.3 1.62.71.36 1.59.53 2.47.6.88.07 1.81.05 2.7-.02l-.64.83-.03-1.05c.02-.35.03-.7.08-1.05.1-.7.25-1.39.51-2.05a7.19 7.19 0 0 1 1.81-2.63 6.39 6.39 0 0 1 .66-.49l.12-.07.07-.04c.08-.04-.1.04-.14.14Zm.85.6c-.07.12-.3.22-.25.2l-.04.02c-.03 0-.06.03-.1.04l-.17.11a3.77 3.77 0 0 0-.95.9 4.9 4.9 0 0 0-.8 1.59 6.8 6.8 0 0 0-.25 1.79c-.01.3.01.6.02.91l.1.92.07.7-.72.13a13 13 0 0 1-3.02.14 7.9 7.9 0 0 1-3.08-.79 4.3 4.3 0 0 1-1.36-1.1 3.59 3.59 0 0 1-.74-1.65c-.1-.58-.09-1.16.02-1.69.04-.27.12-.52.18-.78.09-.25.16-.5.27-.74a8.06 8.06 0 0 1 4.3-4.28c.93-.41 1.9-.69 2.89-.85 1-.18 1.97-.25 3.02-.18l.2.01.17.15.2.19.2.18.02.27a13.3 13.3 0 0 1 0 2.65l-.04.44-.02.23-.03.23a1 1 0 0 1-.09.26Z" fill="#2B3A40"/><path d="M94.72 147.07c-.06 1.45-.04 2.8.08 4.03 0 0 2.04 3.76 2.02 6.48.73.1 8.78 1.13 7.28-4.93-1.38-5.55-7.78-5.65-9.38-5.58Z" fill="#B3BBC0"/><path opacity=".25" d="M104.1 152.65c-1.38-5.55-7.78-5.65-9.38-5.58l-.03 1.63c2.52.2 6.69.33 7.7 5.54a4.8 4.8 0 0 1-.58 3c1.45-.66 2.9-2.1 2.28-4.6Z" fill="#EBEDEE"/><path d="M95.1 147.44c.07 0 .12-.04.12-.07l-.01.22-.02.5v.99c.02.66.09 1.31.18 1.96l-.1-.28c.37.52.7 1 1.02 1.54.31.52.61 1.06.85 1.64a8 8 0 0 1 .76 3.79l-.7-.88c1.71.22 3.62.17 5.02-.52.7-.33 1.19-.86 1.39-1.62a5.52 5.52 0 0 0-1.52-4.68 6.64 6.64 0 0 0-2.15-1.4c-.8-.33-1.66-.58-2.53-.7l-1.33-.21-.66-.09-.34-.02-.17-.01c-.02 0 .06-.01.1-.04a.24.24 0 0 0 .08-.12Zm-.75-.74a1.05 1.05 0 0 1 .53-.17l.19-.02.36-.02.73-.03c.5 0 .99.02 1.47.11.97.18 1.93.45 2.84.9a7.52 7.52 0 0 1 3.95 4.42c.15.47.29.95.36 1.46.1.5.13 1.05.04 1.6a3.63 3.63 0 0 1-1.86 2.73c-.97.55-2 .75-3 .84-1 .1-1.97.08-2.98-.06l-.76-.1.07-.78a7.9 7.9 0 0 0-.53-3.1 18.12 18.12 0 0 0-1.43-3.05l-.1-.15v-.13a35.4 35.4 0 0 1-.05-2.06v-1.02l.01-.51v-.28c.02-.2.08-.42.16-.58ZM104.73 78c-.2 3.24-.7 6.56-1.36 9.86-.35 1.73-.75 3.5-.91 5.3-.16 1.86-.07 3.72.3 5.5.05.28.48.3.56.02 1.44-5.2 4.38-9.57 5.6-14.82.09-.31.17-.62.24-.94.1 1.5.25 2.99.37 4.47.8 8.37.31 16.58-2.31 24.54-.53 1.62-1.17 3.24-1.78 4.93-.1.27.25.5.46.31 4.86-4.28 7.7-10.62 8.72-17.05-.26-1.8-.64-4.58-1.84-9.92-1.72-7.6-5.57-14.64-8.04-18.6.12 2.13.14 4.26 0 6.4Zm-41.38 39.17c.2.2.56-.05.46-.31-1.2-3.23-2.38-6.35-3.1-9.66a61.02 61.02 0 0 1-1.27-9.71c-.05-.9-.1-1.8-.13-2.72-.31 4.94-1.66 7.53-3.57 10.19a26.6 26.6 0 0 0 7.6 12.21Zm47.63 7.05c-2.33 2.5-5.14 4.42-7.75 6.82-.36.3-.1.94.38.9a20.64 20.64 0 0 0 10.57-3.97 21.43 21.43 0 0 0 5.2-5.52c.5-6.97-.74-12.03-2.15-15.32l.02.34c.08 3.16.36 5.98-1.04 8.76a26.13 26.13 0 0 1-5.23 7.99Zm5.37 9.76a26.06 26.06 0 0 1-7.9 4.79l-1.99.72c-1.36.52-2.88.84-4.4 1.66a.52.52 0 0 0 .03.92 14.89 14.89 0 0 0 11.77-.11 51.72 51.72 0 0 0 3.65-9.09c-.38.38-.76.75-1.16 1.1Zm-56-4.23c-2.12-2.85-4.53-5.24-6.37-8.14-1.6-2.46-2.7-5-3.43-7.83-.65 2.91-.8 6.69-.63 10.66l.23.26a20.7 20.7 0 0 0 9.67 5.87c.45.13.83-.45.53-.82Zm-.9 11.05c.1-.02.2-.08.28-.18a.52.52 0 0 0-.08-.72c-1.35-1.09-2.77-1.68-4.02-2.44a33.68 33.68 0 0 1-4.83-3.26c.3 2.23.64 4.34.98 6.2.88.3 1.8.5 2.73.6 1.7.18 3.28.22 4.94-.2Z" fill="#2B3A40"/><path d="M75.58 159.65c-1.2.1-2.23-.38-2.46-1.66a8.5 8.5 0 0 1-.14-1.27.1.1 0 0 0-.21-.03 4.1 4.1 0 0 0-.24 1.36 2.34 2.34 0 0 0 1.51 2.35h.38c.53 0 1.07-.02 1.6-.06.13-.29-.02-.69-.44-.69Zm-3.52.11c-.77.02-1.96-.37-2.39-1.02a5.39 5.39 0 0 1-.64-2.58c0-.12-.16-.15-.2-.04a4.39 4.39 0 0 0 .23 3.18c.2.29.42.5.65.66.9.18 1.9.3 2.83.37.05-.27-.12-.58-.48-.57Zm15.62.69c-1.04-.08-1-1.9-1.14-2.72-.04-.42-.06-.85-.12-1.28-.26-.5-.43 1.07-.47 1.26-.15.97-.16 2.43.53 3.2.53.05 1.07.09 1.62.11.04-.25-.09-.52-.42-.57Zm4.59-3.98c0 1.07 0 2.11-.28 3.1-.08.3-.25.52-.36.59a.5.5 0 0 0-.2.67c.04.08.1.13.17.17.19 0 .37-.01.56-.03.76-.5.87-1.52.86-2.34.05-.22-.44-2.8-.75-2.16Zm-26.87-2.61c-.02-.11-.19-.11-.21 0-.3 1.49-.56 2.86-2.16 2.92-1.37-.18-1.93-.62-1.68-2.26.06-.48.14-.97.19-1.47.01-.11-.16-.16-.2-.06-.98 1.99-1.25 3.72.4 4.45.6.18 1.32.19 2.04.18a2.1 2.1 0 0 0 1.37-1.06c.44-.87.39-1.79.25-2.7Zm36.4-1.16c.33 1.52.39 3.79-1.41 4.06h-.1l-.09.02-.23.01c-.05 0-.1.02-.13.04-.24.02-.45 0-.57-.06-.52-.37-.47-1.65-.62-2.32a6.72 6.72 0 0 0-.33-1.4.12.12 0 0 0-.24.06c.32 1.45-.31 3.68.78 4.43.87.05 1.76-.03 3.1-.7.8-1.08.64-2.85.09-4.2-.05-.15-.28-.08-.24.06Z" fill="#2A3940"/><path d="M80.94 147.62s-1.05 3.03-.92 5.95c.3 6.93-6 6.31-6 6.31s7.18.7 7.45-1.68c.26-2.38.52-8.2.52-8.2l-1.05-2.38Z" fill="#7A8992" style="mix-blend-mode:multiply" opacity=".25"/><path opacity=".25" d="M96.06 40.05s-.2 5.88.14 9.58c.35 3.7 2.02 10.5 4.47 18.08 2.46 7.59-1.49 17.73-2.36 23.02-.88 5.3-1.11 13.4-2.1 21.43-2.11 16.94-6.5 25.67-5.27 38.9 0 0 3.68 7.76 1.93 9 0 0 4.68.4 3.48-4.83-1.2-5.23-2.6-4.17-1.38-11.93 1.23-7.76 7.02-26.81 7.72-31.93.7-5.12.35-10.23 0-13.76-.35-3.53 1.93-12.52 1.93-16.58 0-4.06 1.05-9.35-1.75-18.35-2.8-9-4.39-16.05-4.21-20.99.17-4.94.32-6.47.32-6.47l-2.92 4.84Z" fill="#EBEDEE"/><path d="M73.75 44.07c-5.97-5.3-3.79-13.55-2.82-15.5.76-1.51.45-1.66 3.73-7.62 1.03-1.87 2.68-2.13 2.7-3.53.05-3.41.13-6.1-3.28-5.58-1.64.24-3.15-2.8-6.05-2.16 0 0-1.21.11-3.62 1.98a19.74 19.74 0 0 0-3.33 4.8C59 20.45 55.5 25.1 56.93 30.5c.69 2.57 2.16 5.28 3.95 7.89.65.94.88 1.82 1.46 2.6l.34.88c1.75 6.61-.16 12.96-1.74 17.73a52.55 52.55 0 0 0-2.54 15.78c.09 4.68 2.02 14.3 1.58 21.53-.44 7.23 2.8 16.58 5.09 26.2 2.28 9.6 4.65 27.68 4.65 27.68l1.92-.61c.7-11.47-3.24-28.4-6.05-39.16-2.8-10.76-1.15-19.02-2.45-28.14-1.4-9.79-1.32-14.2.61-18.78 4.13-9.82 9.1-9.29 11.8-11.88 2.94-2.81.96-5.7-1.8-8.15Z" fill="#7A8992" style="mix-blend-mode:multiply" opacity=".25"/><path opacity=".25" d="M116.2 105.02c-2.1-3.7-.8-3.17-3.42-14.82-1.61-7.11-5.08-13.73-7.54-17.8-.08 1.7-.2 3.8-.36 6.42-.26 4.24 4.46 10.06 4.74 21.7.26 11.12 6.84 8.73 5.26 27.26-.96 11.34-2.1 14.55-2.1 14.55s2.92-4.67 5.35-11.8c.16-.64.3-1.3.44-1.96 2.36-12.17-.27-19.85-2.37-23.55Z" fill="#EBEDEE"/><path d="M103.57 105.81s0 12.17-2.63 23.82c-2.63 11.64 3.16 27.4 13.42 11.52 0 0-4.4 8.83-10.1 13.08-.98.74 1.06-3.7-3.85-6.17-3.12-1.57-5.69-1-5.69-1s1.74-14.26 3.85-21.14c2.1-6.88 4.74-16.4 5-20.1Z" fill="#7A8992" style="mix-blend-mode:multiply" opacity=".25"/><path d="M103.94 153.8a22.65 22.65 0 0 0 3.84-3.83 49.98 49.98 0 0 0 8.26-14.34 42.27 42.27 0 0 0 2.12-8.05l.2-1.37.16-1.38c.42-3.68.33-7.4-.23-11.01-.3-1.8-.72-3.59-1.36-5.29-.3-.85-.68-1.67-1.09-2.47l-.67-1.23a11.3 11.3 0 0 1-.63-1.36c-.39-.97-.54-1.98-.67-2.9l-.4-2.78c-.3-1.83-.65-3.66-1-5.49a63.4 63.4 0 0 0-1.28-5.4 60.45 60.45 0 0 0-6.96-15.13.53.53 0 0 1 .16-.74.52.52 0 0 1 .72.16v.01a92.95 92.95 0 0 1 5.3 10 53.45 53.45 0 0 1 3.54 10.78 94.07 94.07 0 0 1 1.51 8.35c.14.93.28 1.77.58 2.55.16.4.35.8.55 1.19l.68 1.24a29.4 29.4 0 0 1 2.58 8.26c.3 1.9.4 3.82.36 5.72 0 .96-.08 1.9-.13 2.86l-.15 1.42-.07.7-.1.71-.21 1.4-.27 1.4a55.98 55.98 0 0 1-7.13 18.45 40.05 40.05 0 0 1-3.34 4.62 20.68 20.68 0 0 1-4.3 3.83.52.52 0 0 1-.72-.15.53.53 0 0 1 .14-.71v-.01ZM60.25 87.3l.07 4.4c0 .73.01 1.45-.02 2.2-.03.76-.1 1.5-.18 2.25-.18 1.5-.5 3-1.06 4.41a17.71 17.71 0 0 1-2.2 3.96c-.88 1.2-1.83 2.32-2.7 3.48-.45.57-.88 1.15-1.3 1.74-.2.3-.43.6-.6.87-.17.3-.33.6-.46.92a15.26 15.26 0 0 0-.98 4.1 38.94 38.94 0 0 0-.22 4.32c.01 2.89.13 5.79.39 8.68a180.2 180.2 0 0 0 1.74 12.97l.19 1.07c.08.34.13.68.23 1 .17.68.44 1.32.74 1.95a13.8 13.8 0 0 0 5.92 5.84c.25.14.35.46.21.72a.52.52 0 0 1-.7.21h-.02c-2.56-1.52-4.95-3.51-6.46-6.22a12 12 0 0 1-.93-2.1c-.14-.37-.22-.75-.32-1.12l-.25-1.08a102.96 102.96 0 0 1-1.95-13.1 63.9 63.9 0 0 1-.23-8.86c.08-1.48.23-2.97.48-4.44.26-1.47.58-2.95 1.2-4.37.15-.35.32-.7.52-1.04l.63-.94c.43-.6.87-1.2 1.31-1.78.9-1.17 1.8-2.32 2.6-3.5a16.3 16.3 0 0 0 1.97-3.73c.47-1.32.77-2.7.92-4.12.08-.7.13-1.42.15-2.13l.06-2.18.2-4.4a.52.52 0 0 1 1.05.02Z" fill="#2B3A40"/><path d="M89.62 76.67c-.2-4.83 9.16-11.35 7.26-14.6-1.75-3-4.35 3.06-16 3.48-11.65.19-14.56-5.72-16.15-2.65-1.74 3.35 7.33 9.42 8 14.2.98 7.02-9.3 4.79-.6 15.75 3.84 4.84 6.91 14.5 8.71 23.25.84 4.1-2.27 17.5 1.63 34.7 3.47-6.1.4-30.61 1-34.9 1.34-9.62 3.96-20.72 7.6-25.83 8.12-11.4-1.18-6.75-1.45-13.4Z" fill="#fff"/><path d="M83.28 115.4a85.8 85.8 0 0 1 3.26-14.34.15.15 0 0 1 .2-.1c.07.02.1.1.1.17l-.7 3.6-.66 3.6-.63 3.6c-.2 1.2-.37 2.4-.55 3.6v.01a.52.52 0 1 1-1.02-.14Z" fill="#2B3A40"/><path d="M84.31 115.54a29.08 29.08 0 0 0-.12 6.26c.07.68.18 1.4.25 2.12.3 2.85.44 5.71.47 8.57a165.2 165.2 0 0 1-.35 12.86 39.36 39.36 0 0 1-.52 4.31c-.1.38-.14.72-.36 1.18l-.14.22-.1.13c-.03.02-.06.07-.1.13-.06.1-.13.24-.19.39-.24.58-.4 1.26-.54 1.93a19 19 0 0 0-.4 4.1c.02.34.05.67.1.98.05.3.17.61.23.66l.3.13c.15.07.3.12.47.17.3.12.64.2.96.28 1.32.29 2.7.39 4.1.38 1.38-.01 2.78-.12 4.17-.3.7-.07 1.38-.18 2.08-.29l.44-.1c.13-.05.27-.09.38-.17.23-.13.42-.3.55-.54.27-.47.34-1.12.3-1.77a9.7 9.7 0 0 0-.38-1.98 21.4 21.4 0 0 0-1.59-3.83l-.05-.1v-.1a38.9 38.9 0 0 1 .17-7.68 90.5 90.5 0 0 1 1.2-7.52 207.9 207.9 0 0 1 3.62-14.73l1.05-3.65c.35-1.21.67-2.4.97-3.61.58-2.42.99-4.86 1.14-7.32.16-2.47 0-4.92-.26-7.43a61.09 61.09 0 0 1-.26-3.83c0-1.3.01-2.6.18-3.89l.12-.96.17-.96.17-.95.18-.92a70.89 70.89 0 0 0 1.31-11.13c.05-1.24.06-2.48.02-3.73a34.03 34.03 0 0 0-.3-3.68c-.36-2.4-1.22-4.76-2.07-7.12-.86-2.36-1.75-4.74-2.44-7.2-.16-.62-.33-1.23-.48-1.85l-.4-1.88-.29-1.9a9.85 9.85 0 0 1-.1-.95l-.09-.96c-.02-.32-.07-.64-.07-.96l-.02-.96c0-.64-.04-1.28.01-1.92l.1-1.91.26-1.9c.07-.65.17-1.26.28-1.88l.31-1.87c.22-1.26.42-2.49.75-3.77a.52.52 0 1 1 1.02.27l-.01.03c-.32 1.15-.54 2.41-.77 3.64l-.3 1.86c-.1.62-.2 1.25-.28 1.86l-.23 1.85-.1 1.86c-.05.62 0 1.24 0 1.86l.02.93c0 .31.05.62.07.93.2 2.47.71 4.91 1.44 7.3.71 2.38 1.62 4.71 2.53 7.07.9 2.36 1.81 4.76 2.25 7.34.22 1.31.3 2.58.37 3.85a62.3 62.3 0 0 1-.59 11.46 82.5 82.5 0 0 1-.63 3.77l-.18.94-.17.9-.15.91-.1.91a26.67 26.67 0 0 0-.16 3.67c.03 1.23.12 2.46.24 3.72.24 2.5.42 5.1.24 7.67a42.98 42.98 0 0 1-1.2 7.6c-.31 1.24-.66 2.48-1 3.69l-1.06 3.62a242.62 242.62 0 0 0-3.82 14.58c-.54 2.45-1 4.91-1.32 7.39a35 35 0 0 0-.27 7.42l-.07-.2a22.44 22.44 0 0 1 1.64 4.05c.2.71.37 1.44.42 2.2.05.76.01 1.6-.43 2.38a2.82 2.82 0 0 1-2.11 1.34c-.7.1-1.41.22-2.12.3-1.42.18-2.85.3-4.3.31a19.3 19.3 0 0 1-4.34-.37c-.36-.09-.72-.17-1.08-.3a4.46 4.46 0 0 1-.53-.19l-.27-.1a1.27 1.27 0 0 1-.38-.25c-.24-.23-.32-.45-.42-.66a7.8 7.8 0 0 1-.3-1.75c-.04-1.5.11-2.95.38-4.4.15-.71.31-1.43.6-2.16.08-.18.17-.37.28-.56.07-.1.12-.2.22-.3l.07-.08h-.01v-.02c.1-.18.18-.55.25-.86.24-1.34.36-2.76.46-4.16.1-1.41.17-2.83.22-4.24a163.83 163.83 0 0 0-.35-16.98l-.2-2.13a33.92 33.92 0 0 1 .3-6.51c.04-.3.3-.5.6-.45.28.04.48.3.44.59Zm-4.71-1.03c-.44-2.32-.92-4.63-1.48-6.91a69.3 69.3 0 0 0-.91-3.41c-.34-1.13-.7-2.24-1.14-3.34a.15.15 0 0 1 .08-.2c.07-.03.16 0 .2.07a25.6 25.6 0 0 1 1.49 3.25c.43 1.12.8 2.25 1.14 3.4a78.77 78.77 0 0 1 1.64 6.95.52.52 0 1 1-1.01.2v-.01Z" fill="#2B3A40"/><path d="M62.18 39.44a15.38 15.38 0 0 1 1.55 3.32c.37 1.17.6 2.38.68 3.6.18 2.45-.18 4.89-.77 7.21-.6 2.33-1.43 4.56-2.23 6.78a42.29 42.29 0 0 0-1.97 6.68 29.64 29.64 0 0 0-.56 6.9c.09 2.32.35 4.65.61 7 .25 2.34.56 4.68.73 7.06.17 2.37.2 4.75.23 7.1.03 2.36.1 4.7.34 7.02.24 2.33.64 4.63 1.17 6.9.53 2.28 1.28 4.5 1.93 6.79a244.4 244.4 0 0 1 3.43 13.77c.49 2.31.94 4.64 1.35 6.97.4 2.34.78 4.68 1.06 7.04.28 2.36.52 4.73.43 7.2l-.02.47-.47.22a2.64 2.64 0 0 0-.67.48 5.18 5.18 0 0 0-1.4 2.36 9.25 9.25 0 0 0-.1 3.93c-.04-.05.07.12.3.25.23.14.52.26.83.36.61.2 1.29.34 1.97.45 1.37.21 2.78.32 4.17.3a32.13 32.13 0 0 0 5.2-.5c.15-.03.3-.07.44-.12l.19-.06.06-.03h.02v-.01a.62.62 0 0 0-.12.11c-.09.11-.06.1-.07.1l.02-.06.06-.2.1-.5.15-1.03c.17-1.41.3-2.85.4-4.28l.08-1.08c.03-.38.04-.65.01-.98-.05-.66-.19-1.36-.3-2.1a109 109 0 0 1-1.14-17.4c.02-2.9.1-5.8.23-8.7a42.8 42.8 0 0 0 0-4.28 29.4 29.4 0 0 0-.55-4.23.52.52 0 1 1 1.02-.22v.01c.58 2.9.68 5.86.55 8.77a208 208 0 0 0-.18 8.65 104.85 104.85 0 0 0 1.42 17.18c.12.7.28 1.41.36 2.2.04.39.02.84 0 1.18l-.06 1.1a93.45 93.45 0 0 1-.48 5.47 10.03 10.03 0 0 1-.25 1.1c-.04.08-.06.15-.2.33a.96.96 0 0 1-.18.16l-.05.03-.1.05-.18.1-.32.12-.59.16a32.48 32.48 0 0 1-5.52.56 27.2 27.2 0 0 1-4.44-.3c-.73-.12-1.47-.27-2.23-.51a5.62 5.62 0 0 1-1.15-.5c-.2-.12-.4-.27-.6-.47-.18-.2-.39-.5-.46-.87-.14-.8-.2-1.54-.2-2.33.02-.78.1-1.57.33-2.35a6.8 6.8 0 0 1 1.9-3.13 3.98 3.98 0 0 1 1.1-.75l-.49.7c.1-2.26-.13-4.6-.4-6.92-.27-2.32-.62-4.64-1.02-6.96-.4-2.31-.84-4.62-1.3-6.93a243.43 243.43 0 0 0-3.15-13.74c-.6-2.26-1.31-4.54-1.81-6.87a57.8 57.8 0 0 1-1.13-7.05 88.34 88.34 0 0 1-.35-7.11c-.04-2.36-.07-4.7-.25-7.04-.19-2.32-.51-4.67-.8-7-.28-2.35-.56-4.7-.67-7.1a30.9 30.9 0 0 1 .53-7.19c.23-1.17.5-2.33.85-3.5a72.2 72.2 0 0 1 1.12-3.38c.79-2.22 1.58-4.43 2.15-6.67.58-2.24.96-4.52.86-6.8-.09-2.26-.72-4.5-1.89-6.45a.52.52 0 1 1 .9-.55Z" fill="#2B3A40"/><path d="M86.2 102.64s-3.68 10.72-7.76 3.83c0 0 1.91 6.32 2.1 13.37.1 3.28-.26 7.43-.26 12.57 0 12.56 2.37 18.52 2.37 18.52s2.24-4.9 1.71-18.4c-.52-13.49-1.58-16.13-.52-20.1 1.05-3.97 2.36-9.8 2.36-9.8ZM59.63 95.5s-.53 5.81-1.32 10.84-5.55 6.9-4.34 19.05c1.05 10.59 0 14.56-1.18 14.3-1.19-.27-1.32-4.5-1.32-4.5s-1.05 12.16 7.9 16.4c0 0 2.63-4.24 7.1-4.24s2.63-.26 2.63-.26-2.1-17.73-5.52-30.43c-3.42-12.7-3.95-21.17-3.95-21.17Z" fill="#7A8992" style="mix-blend-mode:multiply" opacity=".25"/><path d="M68.18 151.45c.13-.35.33-.66.62-.84.3-.17.61-.28.92-.4a7.89 7.89 0 0 1 1.92-.42 11.01 11.01 0 0 1 3.77.39c.07.02.12.1.1.18a.15.15 0 0 1-.16.1c-.6-.04-1.21-.06-1.81-.03-.6.02-1.2.11-1.77.23-.57.13-1.12.31-1.63.56-.26.13-.49.3-.73.43a2.46 2.46 0 0 1-.9.22h-.03a.3.3 0 0 1-.3-.42ZM89.33 44.76a69.47 69.47 0 0 0 3.01-2.27 26 26 0 0 0 2.74-2.53 18.37 18.37 0 0 0 3.84-6.24.48.48 0 1 1 .9.32 17.12 17.12 0 0 1-4.15 6.5c-.93.9-1.93 1.7-2.98 2.42a36.4 36.4 0 0 1-3.25 1.97.1.1 0 0 1-.14-.04.1.1 0 0 1 .03-.13Zm-16.16 2.11c-1.42-.4-2.81-.9-4.16-1.53a24.9 24.9 0 0 1-3.87-2.2 20.6 20.6 0 0 1-3.38-2.95 17.43 17.43 0 0 1-2.6-3.7.48.48 0 0 1 .2-.64.47.47 0 0 1 .64.2 19.34 19.34 0 0 0 5.62 6.43c1.15.87 2.38 1.65 3.65 2.34 1.28.7 2.6 1.3 3.97 1.85a.1.1 0 0 1-.07.2Z" fill="#2B3A40"/><path opacity=".25" d="M73.05 101.54a21.6 21.6 0 0 1 2.03 3.9 34.7 34.7 0 0 1 1.39 4.11c.38 1.4.63 2.82.79 4.26l.2 2.16c.04.72.1 1.44.16 2.15.07.72.1 1.44.15 2.16.04.72.1 1.43.11 2.15l.05 2.16c.02.72 0 1.44 0 2.16a93.86 93.86 0 0 1-.53 8.57h-.28l-.1-2.14c-.04-.72-.05-1.43-.12-2.13-.1-1.42-.2-2.84-.36-4.25-.08-.7-.13-1.4-.22-2.1l-.28-2.11c-.07-.7-.2-1.4-.3-2.1-.1-.7-.19-1.4-.32-2.09l-.4-2.07-.47-2.06a55.31 55.31 0 0 1-.8-4.14c-.4-2.78-.79-5.57-.96-8.5l.26-.09Z" fill="#EBEDEE"/><path d="M72.43 13.2c-.6-.36-.66-.32-1.57-.73a4.56 4.56 0 0 0-3.84-.19c-1.82.76-3.16 3.22-3.38 4.91-.07.54.63.94 1.7.93 1.09 0 2.44.23 4.29-.66 2.26-1.1 3.28-3.97 2.8-4.25Z" fill="#fff"/><path d="M73 13.35c-1.25-.15-2.16-.83-3.18-.95a5.11 5.11 0 0 0-2.86.55 6.63 6.63 0 0 0-2.16 2.04 7.57 7.57 0 0 0-.83 1.78c-.05.13-.1.29-.17.42-.14.29-.28.54-.55.78-.11.1-.28.1-.38-.02a.27.27 0 0 1 0-.37l.03-.03c.12-.13.26-.37.34-.6.04-.1.07-.22.1-.35l.1-.42a9.7 9.7 0 0 1 1.57-3.11 5 5 0 0 1 3.2-1.59c.6-.05 1.2.02 1.77.2.57.17 1.09.43 1.57.69.48.25.95.55 1.45.43.15-.03.3.06.33.21a.28.28 0 0 1-.3.34H73Z" fill="#2B3A40"/><path d="M68.78 17.08c1.49-.16 2.58-1.33 2.44-2.6-.14-1.27-1.46-2.16-2.95-2-1.49.17-2.58 1.33-2.44 2.6.14 1.27 1.46 2.17 2.95 2Z" fill="#2B3A40"/><path d="M89.22 18.9c-1.69-3.14-3-1.93-6.93-5.83-.96-.96-2.22-1.56-5.06-1.44-2.83.1-4.15 1.03-4.91 2.14-3.58 5.23-4.22 3.03-5.88 6.2-4.03 7.69 4.3 11.6 11.25 11.33 6.95-.28 16.17-3.78 11.53-12.4Z" fill="#fff"/><path d="M70.93 28.58c.76-1.52.45-1.67 3.73-7.63 1.03-1.87 2.68-2.13 2.7-3.53.05-2.86.1-5.2-1.9-5.58a4.72 4.72 0 0 0-3.15 1.93c-3.57 5.23-4.2 3.03-5.87 6.2-2.6 4.95-.06 8.34 3.93 10.04.18-.6.39-1.09.56-1.43Z" fill="#7A8992" style="mix-blend-mode:multiply" opacity=".2"/><path d="M82.62 15.64a34.2 34.2 0 0 1 5.9 0c1.95.15 3.9.44 5.81.86.97.18 1.91.46 2.86.71.93.32 1.87.59 2.78.98a37.16 37.16 0 0 1 5.28 2.6h-.03a37.37 37.37 0 0 0-5.35-2.34c-.91-.35-1.86-.6-2.78-.88-.95-.23-1.88-.5-2.84-.68a41.62 41.62 0 0 0-11.58-.8h-.01a.23.23 0 0 1-.04-.46v.01Zm.87 1.54c.89.21 1.75.48 2.61.76a68.6 68.6 0 0 1 7.57 3.01 40.95 40.95 0 0 1 9.16 5.84h-.02a41.48 41.48 0 0 0-4.5-3 63.24 63.24 0 0 0-14.93-6.16.23.23 0 0 1 .1-.45Zm-12.62.16a44.49 44.49 0 0 0-11.06 3.3 38.98 38.98 0 0 0-5.1 2.74A29.09 29.09 0 0 0 50.15 27v-.03c1.36-1.4 2.8-2.72 4.42-3.82 1.6-1.1 3.3-2.1 5.09-2.88a44.91 44.91 0 0 1 8.29-2.83c.95-.23 1.9-.43 2.88-.55.12-.02.24.07.25.2a.23.23 0 0 1-.19.25Zm-.37 1.65a65.08 65.08 0 0 0-13.32 9.16 41.65 41.65 0 0 0-3.83 3.87V32a41.01 41.01 0 0 1 7.76-7.6 65.55 65.55 0 0 1 6.78-4.52c.79-.46 1.58-.9 2.4-1.3.12-.05.25 0 .3.12.06.1.01.24-.1.3Zm8.15-8.65c-.11-.09-.6-.18-1.82-.04-1.23.14-1.67.34-1.77.45-.15.2-1.3 1.49-1.13 1.76.04.06.1.1.2.08.31-.03.9-.27 1.4-.2.57.09.95 1.15.99 1.22.15.27.44.38.72.36a.75.75 0 0 0 .63-.5c.03-.1.16-1.21.7-1.42.47-.2 1.1-.09 1.4-.12.1-.02.16-.06.18-.13.1-.3-1.3-1.3-1.5-1.46Z" fill="#2B3A40"/><path d="M70.52 24.17c.51-.19.92-.52 1.21-.97.3-.45.52-.96.78-1.47a9.58 9.58 0 0 1 2.04-2.86c.87-.8 2.04-1.27 2.21-2.13.06-.22.07-.46.06-.7l-.05-.84-.12-1.7a.46.46 0 1 1 .9-.06h.01l.11 1.7.05.86a2.48 2.48 0 0 1-.6 1.88 4 4 0 0 1-.7.63c-.5.34-.95.62-1.36.96a9.23 9.23 0 0 0-2.03 2.54c-.29.48-.56 1-.94 1.46-.37.47-.91.84-1.49.96a.14.14 0 0 1-.08-.26Z" fill="#2B3A40"/><path d="M84.95 23a5.67 5.67 0 0 1-1.5-.8c-.46-.35-.83-.8-1.18-1.2a9.94 9.94 0 0 0-2.4-2.06c-.44-.25-.94-.43-1.47-.68a3.34 3.34 0 0 1-.78-.52 2.25 2.25 0 0 1-.58-.83 3.22 3.22 0 0 1-.2-.94l-.05-.82-.12-1.65a.46.46 0 1 1 .9-.06h.01l.1 1.65.06.82c.02.24.06.47.13.68.23.82 1.4 1.06 2.4 1.66.25.15.5.33.71.51a11.35 11.35 0 0 1 1.74 1.86c.33.45.65.87 1.03 1.23s.84.64 1.3.9c.08.04.1.12.07.19a.14.14 0 0 1-.17.06Zm-5.3-16.27-.06.11c-.31 1.1-.64 2.79-.04 2.95.8.2 2.06-2.77 4.7-1.38.08.04.21-1.37.21-1.37s-1.1-.12-2.6-.22c-1.51-.1-2.2-.09-2.2-.09ZM73 7.54l.08.1c.48 1.05 1.05 2.66.48 2.9-.75.34-2.34-2.09-4.1-.99a9.61 9.61 0 0 1-1.17-.97s1.08-.29 2.55-.61A32.8 32.8 0 0 1 73 7.54Z" fill="#2B3A40"/></svg>